PathFileType	4	(X/Y/Z)	Patient4_TMGait_0pt8_01_right_47.trc.trc
DataRate	CameraRate	NumFrames	NumMarkers	Units	OrigDataRate	OrigDataStartFrame	OrigNumFrames
88.607594936709	88.607594936709	6	33	mm	88.607594936709	1	       141
Frame#	Time	Sacral			L.Shoulder			Chest			R.Shoulder			Neck			R.ASIS			L.ASIS			R.Thigh.Superior			R.Thigh.Lateral			R.Thigh.Inferior			R.Patella			L.Thigh.Superior			L.Thigh.Lateral			L.Thigh.Inferior			L.Patella			L.Shank.Superior			L.Shank.Lateral			L.Shank.Inferior			R.Shank.Superior			R.Shank.Lateral			R.Shank.Inferior			R.Heel			R.Midfoot.Superior			R.Midfoot.Lateral			R.Toe			L.Heel			L.Midfoot.Lateral			L.Midfoot.Superior			L.Toe			L.Elbow			L.Wrist			R.Elbow			R.Wrist			
		X1	Y1	Z1	X2	Y2	Z2	X3	Y3	Z3	X4	Y4	Z4	X5	Y5	Z5	X6	Y6	Z6	X7	Y7	Z7	X8	Y8	Z8	X9	Y9	Z9	X10	Y10	Z10	X11	Y11	Z11	X12	Y12	Z12	X13	Y13	Z13	X14	Y14	Z14	X15	Y15	Z15	X16	Y16	Z16	X17	Y17	Z17	X18	Y18	Z18	X19	Y19	Z19	X20	Y20	Z20	X21	Y21	Z21	X22	Y22	Z22	X23	Y23	Z23	X24	Y24	Z24	X25	Y25	Z25	X26	Y26	Z26	X27	Y27	Z27	X28	Y28	Z28	X29	Y29	Z29	X30	Y30	Z30	X31	Y31	Z31	X32	Y32	Z32	X33	Y33	Z33	

1	52.900000000000	868.850925331689	1013.698661944895	454.309633002581	1059.636754151813	1435.506019811832	269.381603638619	1160.342808722005	1363.832451292599	431.216628078978	1079.578061657687	1440.140416099149	605.395419771050	1044.992522555615	1498.388987179692	426.105710489391	1093.557956342665	945.250198859774	567.483511754192	1079.285861705764	964.322563148210	294.977646826279	1178.410532416561	779.849104321722	543.709900451994	1139.035935945408	659.141755428953	620.863551716682	1232.970812142985	620.667549684518	545.519613179072	1250.264947064723	504.425944789854	569.252670448551	1125.264760454905	753.674815851797	317.485019658573	1031.365692436679	640.401842943694	262.522900229988	1118.727936701536	560.759972221331	320.430266876465	1118.762625391180	492.231065217976	329.731866281992	1092.975066009534	420.890552296048	323.297010179202	1001.561307117450	304.907241121439	279.367952801285	1059.626119917064	195.155465519970	347.504746625051	1167.731788492035	433.488499948481	572.833005931481	1039.719499288841	406.823425648925	627.725979278826	1017.289233596800	299.639624890662	578.524658391332	812.062618247747	255.312869272548	540.379472051030	973.820711720550	185.742727126356	591.680775276187	862.586169720224	192.830785784064	617.748317204505	1028.916153984953	70.243365411778	622.809246728044	936.308316574500	38.479901435462	399.837462703802	1004.330224994234	35.905367741284	313.768836598231	1088.739153477141	97.139403638666	335.202709759054	1214.898105469348	46.817651263032	297.702968982201	1068.768862485149	1085.676674778589	142.231927561347	1191.934317331385	854.493922448398	138.086316281700	1055.217745187899	1090.554195545579	715.710224012438	1274.504695078860	959.300968184510	676.751481773321	
2	52.911285714286	867.840846130292	1013.818573684298	452.691009919871	1060.350820473022	1436.077012331919	269.397198251685	1159.659538167596	1363.976392446305	431.852330464343	1077.432933552274	1439.850626952258	605.529840529691	1044.586306960433	1498.637856010310	426.150571317063	1092.592321424791	946.518601842569	567.643238275961	1079.396517838531	964.491727541130	294.728978320465	1179.311714794640	783.919100378851	542.985992039807	1143.443725856723	662.939138207102	620.727555685233	1237.284536071662	626.092773020090	544.628855763657	1257.933186253839	510.902996496819	568.762248834731	1123.159470049076	752.595964243650	318.272209940184	1028.207996395212	640.232835678441	262.413254302101	1113.949434106668	559.724314083586	321.053938229458	1112.891060875116	491.155406976891	330.580037847781	1086.735829275956	420.110854645402	323.910885301917	994.799294002650	304.900510305544	279.402597667433	1051.412257881886	194.695246051833	347.867248436727	1177.897218420248	437.554893748996	573.132861454420	1051.647578880287	406.146861207609	628.945735841450	1033.056849724844	298.173470510827	580.013943016540	829.941786709972	246.032136251673	543.352172767761	994.360219152517	182.982822591066	594.177209074884	883.083366956861	185.641929483013	620.437222504851	1053.511235342484	69.272737748476	624.420458581504	926.753541888673	38.543369649466	399.822433303267	994.843109066306	35.920603787093	313.819173594304	1079.352511389464	97.002317799959	335.392973564971	1205.513184148464	46.480014440462	297.712396853597	1077.854717018379	1088.498357685935	139.349005513697	1213.183345190810	865.266318749833	135.708270403826	1045.289447631456	1090.490737450426	715.507737832085	1249.226719464501	939.426451769842	683.539019623342	
3	52.922571428571	866.857736945290	1013.917002442821	451.112808196650	1061.071794714571	1436.624154630135	269.435485694113	1158.993568180654	1364.100941167829	432.504141139761	1075.327303577026	1439.540322893950	605.686140458235	1044.190136178455	1498.863970120999	426.213684044141	1091.602862182579	947.716396966833	567.804976596269	1079.514255174945	964.646333653496	294.507282125695	1180.158496335098	787.881885594953	542.272504254568	1147.713421921919	666.653304220803	620.593834150283	1241.440011141052	631.375226560952	543.756514369517	1265.364387720038	517.252269602382	568.311071154280	1121.078344736132	751.520396172953	319.075682230020	1025.110383056147	640.050500200176	262.309829535471	1109.249445398286	558.687131438258	321.667543235102	1107.118524833963	490.087145001249	331.406222438989	1080.595844076180	419.328112015274	324.508446192692	988.125851610579	304.884903942160	279.440912122897	1043.304342646376	194.231725146377	348.221493710526	1187.842572964793	441.516249630878	573.463837359466	1063.380853085473	405.343176320408	630.169923840078	1048.678138001734	296.595778293958	581.514081339051	847.717431457677	236.618719514169	546.292471875139	1014.751472148450	180.084861169374	596.623771005745	903.462581681816	178.355733134762	623.122217688059	1077.991097378849	68.255792977958	626.099651146031	917.323399374579	38.600394678119	399.807585993810	985.477546628820	35.935554028561	313.865412707845	1070.087088565309	96.872748193184	335.578930272352	1196.245010986695	46.152028523475	297.723657953247	1086.720197554642	1091.290385405195	136.537670056267	1234.049529113524	876.067691275162	133.425915096901	1035.655614789766	1090.376223627859	715.261886497570	1223.954046111240	920.068631164516	690.239104315309	
4	52.933857142857	865.931783302927	1013.967478736152	449.606122112765	1061.818765767052	1437.122657170788	269.535468119624	1158.369839685392	1364.176225218243	433.202763759434	1073.304737641186	1439.174321449789	605.900198120435	1043.822172225951	1499.036186452989	426.331561378832	1090.575807143734	948.770309612879	567.981304361557	1079.657580969619	964.761145895743	294.343433130181	1180.878222067339	791.591177181149	541.603854018923	1151.660372571942	670.156108636084	620.489747957639	1245.243735748563	636.324342187599	542.958408530677	1272.287816687665	523.329662900607	567.962954103885	1119.023164672094	750.430399334683	319.910291156837	1022.080434296697	639.841933529349	262.219636715173	1104.629153351039	557.635170367469	322.265094519111	1101.453260049351	489.024311589617	332.192288185039	1074.560836806485	418.536024753546	325.075724643016	981.533539297964	304.854464566663	279.486262139379	1035.299813330355	193.762097040547	348.561187540656	1197.371929007335	445.258406483289	573.873531668297	1074.833937312039	404.225727111993	631.433180056980	1064.180458344584	294.776716791960	583.054754063763	865.595978725278	226.824187680943	549.198016068269	1035.120227417811	176.931564847102	598.998510810770	923.932359922153	170.810725250198	625.816235292285	1102.548694200487	67.244164215719	627.901850248297	908.031809133687	38.648857592440	399.792653395110	976.243555418039	35.951287885744	313.904499837181	1060.953417214131	96.756184773783	335.756343590482	1187.099379645112	45.840272560676	297.737938553275	1095.206712031771	1094.040959943501	133.868310387250	1254.265502712950	887.089997405997	131.350185823941	1026.491847814553	1090.189654210114	714.949412762544	1198.497783278224	901.770720341958	696.783303715753	
5	52.945142857143	865.089768680614	1013.947990442832	448.196831019440	1062.609219018724	1437.552922401935	269.733058794381	1157.811922929965	1364.175696243997	433.975377092808	1071.404347033807	1438.720156791424	606.204332954891	1043.500748479081	1499.127852030281	426.538678461299	1089.507622257388	949.623391314338	568.184614615678	1079.842372612219	964.811851200548	294.262335533782	1181.406839484757	794.915232789877	541.017705062093	1155.116655029603	673.325628789225	620.446420428332	1248.529190021353	640.767220091840	542.297303693406	1278.469487123262	529.006208070447	567.782101219688	1116.993438589060	749.307363354860	320.783868738214	1019.109605657914	639.597951530564	262.148661947100	1100.068098072914	556.554985000806	322.843355178328	1095.878591467416	487.964750378744	332.924365409555	1068.611102115850	417.729810493470	325.602982996681	974.993862064068	304.805161779767	279.540356520346	1027.371065915666	193.284380534658	348.882478119770	1206.325249290425	448.682708479370	574.406977434814	1085.960038555789	402.632276957443	632.772705542147	1079.620988815695	292.614967444031	584.664946252856	883.821669189547	216.436874204345	552.068304941803	1055.630408284148	173.449599784253	601.296194879217	944.735192426184	162.872805718368	628.525834539392	1127.399363416454	66.312525859382	629.860908405702	898.866360915901	38.688611294261	399.776120398512	967.124713970878	35.968119583145	313.934532375168	1051.934865958037	96.655401186796	335.922082958519	1178.056982851232	45.548995540868	297.755930626819	1103.200866283049	1096.741449735320	131.399754131637	1273.630035364166	898.518235782336	129.574565601923	1017.904626662201	1089.924226677823	714.559658338522	1172.695719334731	885.008962765693	703.108959762130	
6	52.956428571429	864.354026158613	1013.842711287271	446.904497721628	1063.456094396332	1437.901365312163	270.057907861461	1157.341149078965	1364.078090810549	434.842078980165	1069.660613418724	1438.151862548274	606.624098272266	1043.243500380336	1499.118580348416	426.864533369531	1088.409648405374	950.238907106252	568.427229774744	1080.082580085332	964.778029187295	294.280394894894	1181.694063927670	797.740725750325	540.553771790595	1157.939677919891	676.048944760232	620.497181894079	1251.165343704757	644.554306946839	541.838992760812	1283.723907523672	534.168718956886	567.826299925589	1114.989070624161	748.134426659304	321.694547543973	1016.176901723539	639.314683495807	262.101381143364	1095.531347721633	555.435997671338	323.401277687249	1090.360281096313	486.907729545467	333.593249291401	1062.710108119566	416.908470970848	326.084476660859	968.467352061366	304.735827586911	279.603061517373	1019.477756649263	192.798720498785	349.183552122112	1214.578286721770	451.708848110789	575.100877412920	1096.739243984647	400.442688995223	634.222588423730	1095.057508416845	290.052785016504	586.366840615564	902.629153958853	205.321148860082	554.900727360552	1076.437293305450	169.626344864711	603.523431912582	966.096229740381	154.464402390279	631.245791865279	1152.721847571610	65.560068780378	631.980308876603	889.800653453864	38.721898320984	399.755777143057	958.091297597882	35.985647147208	313.955063177940	1043.001000505215	96.570546097639	336.073950463254	1169.086627221167	45.279959666721	297.777668284631	1110.634449102268	1099.382744386418	129.178002600913	1291.996525712763	910.495938574692	128.170176563406	1009.927402640448	1089.591848956742	714.098341279828	1146.475296020015	870.174063383048	709.155264474835	
